<svg width="99" height="19" viewBox="0 0 99 19" fill="none" xmlns="http://www.w3.org/2000/svg">
<path d="M7.38249 18.336C4.04649 18.336 1.71849 16.752 0.782487 14.184L3.61449 12.528C4.26249 14.232 5.55849 15.096 7.47849 15.096C9.32649 15.096 10.1665 14.352 10.1665 13.32C10.1665 12.72 9.90249 12.264 9.37449 11.952C8.84649 11.616 7.91049 11.256 6.54249 10.872C5.03049 10.416 4.11849 10.056 3.06249 9.312C2.03049 8.544 1.47849 7.392 1.47849 5.856C1.47849 4.344 2.00649 3.12 3.08649 2.232C4.16649 1.32 5.48649 0.863999 6.99849 0.863999C9.71049 0.863999 11.8465 2.256 12.9985 4.632L10.2145 6.24C9.54249 4.8 8.46249 4.08 6.99849 4.08C5.63049 4.08 4.79049 4.776 4.79049 5.76C4.79049 6.288 5.00649 6.72 5.43849 7.056C5.89449 7.368 6.73449 7.728 7.98249 8.112L9.13449 8.496C9.39849 8.568 9.75849 8.712 10.2145 8.904C10.6705 9.072 11.0305 9.24 11.2705 9.408C11.7745 9.72 12.5425 10.32 12.8545 10.896C13.2145 11.472 13.4785 12.312 13.4785 13.272C13.4785 14.832 12.9025 16.056 11.7745 16.968C10.6465 17.88 9.18249 18.336 7.38249 18.336ZM23.4895 18.336C20.9695 18.336 18.8815 17.496 17.2255 15.816C15.5695 14.136 14.7535 12.072 14.7535 9.6C14.7535 7.128 15.5695 5.04 17.2255 3.384C18.8815 1.704 20.9695 0.863999 23.4895 0.863999C26.5375 0.863999 29.2735 2.4 30.7135 4.824L27.8575 6.48C27.0175 4.968 25.4095 4.08 23.4895 4.08C21.8575 4.08 20.5375 4.584 19.5295 5.616C18.5455 6.648 18.0415 7.968 18.0415 9.6C18.0415 11.208 18.5455 12.528 19.5295 13.56C20.5375 14.592 21.8575 15.096 23.4895 15.096C25.4095 15.096 27.0655 14.184 27.8575 12.72L30.7135 14.376C29.2735 16.8 26.5615 18.336 23.4895 18.336ZM32.748 18V1.2H36.06V18H32.748ZM44.6481 18.336C41.3121 18.336 38.9841 16.752 38.0481 14.184L40.8801 12.528C41.5281 14.232 42.8241 15.096 44.7441 15.096C46.5921 15.096 47.4321 14.352 47.4321 13.32C47.4321 12.72 47.1681 12.264 46.6401 11.952C46.1121 11.616 45.1761 11.256 43.8081 10.872C42.2961 10.416 41.3841 10.056 40.3281 9.312C39.2961 8.544 38.7441 7.392 38.7441 5.856C38.7441 4.344 39.2721 3.12 40.3521 2.232C41.4321 1.32 42.7521 0.863999 44.2641 0.863999C46.9761 0.863999 49.1121 2.256 50.2641 4.632L47.4801 6.24C46.8081 4.8 45.7281 4.08 44.2641 4.08C42.8961 4.08 42.0561 4.776 42.0561 5.76C42.0561 6.288 42.2721 6.72 42.7041 7.056C43.1601 7.368 44.0001 7.728 45.2481 8.112L46.4001 8.496C46.6641 8.568 47.0241 8.712 47.4801 8.904C47.9361 9.072 48.2961 9.24 48.5361 9.408C49.0401 9.72 49.8081 10.32 50.1201 10.896C50.4801 11.472 50.7441 12.312 50.7441 13.272C50.7441 14.832 50.1681 16.056 49.0401 16.968C47.9121 17.88 46.4481 18.336 44.6481 18.336ZM58.1247 18.336C54.7887 18.336 52.4607 16.752 51.5247 14.184L54.3567 12.528C55.0047 14.232 56.3007 15.096 58.2207 15.096C60.0687 15.096 60.9087 14.352 60.9087 13.32C60.9087 12.72 60.6447 12.264 60.1167 11.952C59.5887 11.616 58.6527 11.256 57.2847 10.872C55.7727 10.416 54.8607 10.056 53.8047 9.312C52.7727 8.544 52.2207 7.392 52.2207 5.856C52.2207 4.344 52.7487 3.12 53.8287 2.232C54.9087 1.32 56.2287 0.863999 57.7407 0.863999C60.4527 0.863999 62.5887 2.256 63.7407 4.632L60.9567 6.24C60.2847 4.8 59.2047 4.08 57.7407 4.08C56.3727 4.08 55.5327 4.776 55.5327 5.76C55.5327 6.288 55.7487 6.72 56.1807 7.056C56.6367 7.368 57.4767 7.728 58.7247 8.112L59.8767 8.496C60.1407 8.568 60.5007 8.712 60.9567 8.904C61.4127 9.072 61.7727 9.24 62.0127 9.408C62.5167 9.72 63.2847 10.32 63.5967 10.896C63.9567 11.472 64.2207 12.312 64.2207 13.272C64.2207 14.832 63.6447 16.056 62.5167 16.968C61.3887 17.88 59.9247 18.336 58.1247 18.336ZM80.3997 15.816C78.6957 17.496 76.6317 18.336 74.2077 18.336C71.7837 18.336 69.7197 17.496 68.0157 15.816C66.3357 14.112 65.4957 12.048 65.4957 9.6C65.4957 7.152 66.3357 5.088 68.0157 3.408C69.7197 1.704 71.7837 0.863999 74.2077 0.863999C76.6317 0.863999 78.6957 1.704 80.3997 3.408C82.1037 5.088 82.9437 7.152 82.9437 9.6C82.9437 12.048 82.1037 14.112 80.3997 15.816ZM70.3437 13.56C71.3757 14.592 72.6717 15.096 74.2077 15.096C75.7437 15.096 77.0397 14.592 78.0717 13.56C79.1037 12.528 79.6317 11.208 79.6317 9.6C79.6317 7.992 79.1037 6.672 78.0717 5.64C77.0397 4.608 75.7437 4.08 74.2077 4.08C72.6717 4.08 71.3757 4.608 70.3437 5.64C69.3117 6.672 68.7837 7.992 68.7837 9.6C68.7837 11.208 69.3117 12.528 70.3437 13.56ZM98.0635 18H94.4875L91.1035 12.168H88.5835V18H85.2715V1.2H91.9915C93.5515 1.2 94.8715 1.752 95.9515 2.832C97.0315 3.912 97.5835 5.232 97.5835 6.768C97.5835 8.856 96.2875 10.776 94.3435 11.664L98.0635 18ZM91.9915 4.296H88.5835V9.264H91.9915C93.2395 9.264 94.2715 8.136 94.2715 6.768C94.2715 5.4 93.2395 4.296 91.9915 4.296Z" fill="#0065FE"/>
</svg>
